# Blender v2.83.3 OBJ File: ''
# www.blender.org
mtllib wheel.mtl
o Cylinder
v 0.121370 -0.000000 -1.000000
v -0.121370 0.000000 -1.000000
v 0.121370 0.342020 -0.939693
v -0.121370 0.342020 -0.939693
v 0.121370 0.642788 -0.766044
v -0.121370 0.642788 -0.766044
v 0.121370 0.866025 -0.500000
v -0.121370 0.866025 -0.500000
v 0.121370 0.984808 -0.173648
v -0.121370 0.984808 -0.173648
v 0.121370 0.984808 0.173648
v -0.121370 0.984808 0.173648
v 0.121370 0.866025 0.500000
v -0.121370 0.866025 0.500000
v 0.121370 0.642788 0.766044
v -0.121370 0.642788 0.766044
v 0.121370 0.342020 0.939693
v -0.121370 0.342020 0.939693
v 0.121370 0.000000 1.000000
v -0.121370 0.000000 1.000000
v 0.121370 -0.342020 0.939693
v -0.121370 -0.342020 0.939693
v 0.121370 -0.642787 0.766045
v -0.121370 -0.642787 0.766045
v 0.121370 -0.866025 0.500000
v -0.121370 -0.866025 0.500000
v 0.121370 -0.984808 0.173649
v -0.121370 -0.984808 0.173649
v 0.121370 -0.984808 -0.173648
v -0.121370 -0.984808 -0.173648
v 0.121370 -0.866026 -0.499999
v -0.121370 -0.866026 -0.499999
v 0.121370 -0.642788 -0.766044
v -0.121370 -0.642788 -0.766044
v 0.121370 -0.342021 -0.939692
v -0.121370 -0.342021 -0.939692
vt 1.000000 0.500000
vt 1.000000 1.000000
vt 0.944444 1.000000
vt 0.944444 0.500000
vt 0.888889 1.000000
vt 0.888889 0.500000
vt 0.833333 1.000000
vt 0.833333 0.500000
vt 0.777778 1.000000
vt 0.777778 0.500000
vt 0.722222 1.000000
vt 0.722222 0.500000
vt 0.666667 1.000000
vt 0.666667 0.500000
vt 0.611111 1.000000
vt 0.611111 0.500000
vt 0.555555 1.000000
vt 0.555555 0.500000
vt 0.500000 1.000000
vt 0.500000 0.500000
vt 0.444444 1.000000
vt 0.444444 0.500000
vt 0.388889 1.000000
vt 0.388889 0.500000
vt 0.333333 1.000000
vt 0.333333 0.500000
vt 0.277778 1.000000
vt 0.277778 0.500000
vt 0.222222 1.000000
vt 0.222222 0.500000
vt 0.166666 1.000000
vt 0.166666 0.500000
vt 0.111111 1.000000
vt 0.111111 0.500000
vt 0.332085 0.475526
vt 0.250000 0.490000
vt 0.167915 0.475526
vt 0.095731 0.433851
vt 0.042154 0.370000
vt 0.013646 0.291675
vt 0.013646 0.208324
vt 0.042154 0.130000
vt 0.095731 0.066149
vt 0.167915 0.024474
vt 0.250000 0.010000
vt 0.332085 0.024474
vt 0.404269 0.066149
vt 0.457846 0.130000
vt 0.486354 0.208324
vt 0.486354 0.291676
vt 0.457846 0.370000
vt 0.404269 0.433851
vt 0.055555 1.000000
vt 0.055555 0.500000
vt -0.000000 1.000000
vt -0.000000 0.500000
vt 0.750000 0.490000
vt 0.832085 0.475526
vt 0.904269 0.433851
vt 0.957846 0.370000
vt 0.986354 0.291676
vt 0.986354 0.208324
vt 0.957846 0.130000
vt 0.904269 0.066149
vt 0.832085 0.024474
vt 0.750000 0.010000
vt 0.667915 0.024474
vt 0.595731 0.066149
vt 0.542154 0.130000
vt 0.513646 0.208324
vt 0.513646 0.291675
vt 0.542154 0.370000
vt 0.595731 0.433851
vt 0.667915 0.475526
vn 0.0000 0.1736 -0.9848
vn 0.0000 0.5000 -0.8660
vn 0.0000 0.7660 -0.6428
vn 0.0000 0.9397 -0.3420
vn 0.0000 1.0000 0.0000
vn 0.0000 0.9397 0.3420
vn 0.0000 0.7660 0.6428
vn 0.0000 0.5000 0.8660
vn 0.0000 0.1736 0.9848
vn -0.0000 -0.1736 0.9848
vn 0.0000 -0.5000 0.8660
vn 0.0000 -0.7660 0.6428
vn 0.0000 -0.9397 0.3420
vn 0.0000 -1.0000 0.0000
vn 0.0000 -0.9397 -0.3420
vn 0.0000 -0.7660 -0.6428
vn -1.0000 0.0000 -0.0000
vn 0.0000 -0.5000 -0.8660
vn -0.0000 -0.1736 -0.9848
vn 1.0000 -0.0000 0.0000
usemtl None
s off
f 1/1/1 2/2/1 4/3/1 3/4/1
f 3/4/2 4/3/2 6/5/2 5/6/2
f 5/6/3 6/5/3 8/7/3 7/8/3
f 7/8/4 8/7/4 10/9/4 9/10/4
f 9/10/5 10/9/5 12/11/5 11/12/5
f 11/12/6 12/11/6 14/13/6 13/14/6
f 13/14/7 14/13/7 16/15/7 15/16/7
f 15/16/8 16/15/8 18/17/8 17/18/8
f 17/18/9 18/17/9 20/19/9 19/20/9
f 19/20/10 20/19/10 22/21/10 21/22/10
f 21/22/11 22/21/11 24/23/11 23/24/11
f 23/24/12 24/23/12 26/25/12 25/26/12
f 25/26/13 26/25/13 28/27/13 27/28/13
f 27/28/14 28/27/14 30/29/14 29/30/14
f 29/30/15 30/29/15 32/31/15 31/32/15
f 31/32/16 32/31/16 34/33/16 33/34/16
f 4/35/17 2/36/17 36/37/17 34/38/17 32/39/17 30/40/17 28/41/17 26/42/17 24/43/17 22/44/17 20/45/17 18/46/17 16/47/17 14/48/17 12/49/17 10/50/17 8/51/17 6/52/17
f 33/34/18 34/33/18 36/53/18 35/54/18
f 35/54/19 36/53/19 2/55/19 1/56/19
f 1/57/20 3/58/20 5/59/20 7/60/20 9/61/20 11/62/20 13/63/20 15/64/20 17/65/20 19/66/20 21/67/20 23/68/20 25/69/20 27/70/20 29/71/20 31/72/20 33/73/20 35/74/20
